<?xml version="1.0" encoding="UTF-8"?>
<!DOCTYPE svg PUBLIC "-//W3C//DTD SVG 1.1//EN" "http://www.w3.org/Graphics/SVG/1.1/DTD/svg11.dtd">
<svg xmlns="http://www.w3.org/2000/svg" version="1.1" width="512px" height="512px" style="shape-rendering:geometricPrecision; text-rendering:geometricPrecision; image-rendering:optimizeQuality; fill-rule:evenodd; clip-rule:evenodd" xmlns:xlink="http://www.w3.org/1999/xlink">
<g><path style="opacity:0.979" fill="#000000" d="M 511.5,261.5 C 511.5,267.833 511.5,274.167 511.5,280.5C 509.249,287.669 505.916,294.335 501.5,300.5C 505.916,306.665 509.249,313.331 511.5,320.5C 511.5,326.833 511.5,333.167 511.5,339.5C 507.501,355.793 497.668,367.126 482,373.5C 473.715,420.456 446.215,449.29 399.5,460C 388.966,462.505 378.3,464.172 367.5,465C 292.833,465.667 218.167,465.667 143.5,465C 115.526,463.452 89.8593,455.119 66.5,440C 45.0547,422.949 32.5547,400.783 29,373.5C 13.3321,367.126 3.49876,355.793 -0.5,339.5C -0.5,333.167 -0.5,326.833 -0.5,320.5C 1.75092,313.331 5.08425,306.665 9.5,300.5C 5.08425,294.335 1.75092,287.669 -0.5,280.5C -0.5,274.167 -0.5,267.833 -0.5,261.5C 3.49876,245.207 13.3321,233.874 29,227.5C 34.7039,158.198 67.8706,107.031 128.5,74C 182.471,48.2281 239.137,39.5614 298.5,48C 343.267,53.7312 383.267,70.3979 418.5,98C 457.625,132.088 478.792,175.254 482,227.5C 497.668,233.874 507.501,245.207 511.5,261.5 Z M 233.5,76.5 C 275.761,73.3772 316.428,79.8772 355.5,96C 411.951,120.956 443.618,164.122 450.5,225.5C 320.5,225.5 190.5,225.5 60.5,225.5C 66.1353,171.362 92.4686,130.862 139.5,104C 169.076,88.4145 200.41,79.2479 233.5,76.5 Z M 44.5,255.5 C 52.1739,255.334 59.8406,255.5 67.5,256C 77.8039,265.303 87.8039,274.97 97.5,285C 79.8333,285.667 62.1667,285.667 44.5,285C 33.7097,282.933 29.2097,276.433 31,265.5C 33.9825,260.005 38.4825,256.671 44.5,255.5 Z M 112.5,256.5 C 147.331,255.336 182.331,255.169 217.5,256C 200,273.5 182.5,291 165,308.5C 147.632,290.965 130.132,273.632 112.5,256.5 Z M 293.5,256.5 C 328.331,255.336 363.331,255.169 398.5,256C 381,273.5 363.5,291 346,308.5C 328.632,290.965 311.132,273.632 293.5,256.5 Z M 443.5,255.5 C 451.174,255.334 458.841,255.5 466.5,256C 477.29,258.067 481.79,264.567 480,275.5C 477.187,280.996 472.687,284.162 466.5,285C 448.833,285.667 431.167,285.667 413.5,285C 423.395,274.937 433.395,265.104 443.5,255.5 Z M 254.5,263.5 C 262.578,270.073 270.245,277.24 277.5,285C 262.833,285.667 248.167,285.667 233.5,285C 240.703,277.965 247.703,270.798 254.5,263.5 Z M 44.5,315.5 C 72.502,315.333 100.502,315.5 128.5,316C 138.231,326.4 148.564,336.067 159.5,345C 119.462,345.971 79.4616,345.637 39.5,344C 29.5428,337.837 27.8761,329.837 34.5,320C 37.5636,317.63 40.8969,316.13 44.5,315.5 Z M 202.5,315.5 C 237.835,315.333 273.168,315.5 308.5,316C 318.231,326.4 328.564,336.067 339.5,345C 283.5,345.667 227.5,345.667 171.5,345C 182.637,336.03 192.97,326.197 202.5,315.5 Z M 382.5,315.5 C 412.209,315.04 441.875,315.54 471.5,317C 481.457,323.163 483.124,331.163 476.5,341C 473.624,343.437 470.29,344.77 466.5,345C 428.167,345.667 389.833,345.667 351.5,345C 362.637,336.03 372.97,326.197 382.5,315.5 Z M 61.5,375.5 C 190.833,375.5 320.167,375.5 449.5,375.5C 446.061,393.543 436.728,407.71 421.5,418C 397.706,430.302 372.373,435.969 345.5,435C 278.489,435.922 211.489,435.589 144.5,434C 121.251,432.807 100.251,425.474 81.5,412C 70.769,402.036 64.1024,389.87 61.5,375.5 Z"/></g>
<g><path style="opacity:0.928" fill="#000000" d="M 204.5,120.5 C 220.654,118.487 227.487,125.487 225,141.5C 220.652,149.915 213.819,152.748 204.5,150C 196.085,145.652 193.252,138.819 196,129.5C 197.688,125.315 200.521,122.315 204.5,120.5 Z"/></g>
<g><path style="opacity:0.928" fill="#000000" d="M 294.5,120.5 C 310.654,118.487 317.487,125.487 315,141.5C 310.652,149.915 303.819,152.748 294.5,150C 286.085,145.652 283.252,138.819 286,129.5C 287.688,125.315 290.521,122.315 294.5,120.5 Z"/></g>
<g><path style="opacity:0.928" fill="#000000" d="M 144.5,165.5 C 160.654,163.487 167.487,170.487 165,186.5C 160.652,194.915 153.819,197.748 144.5,195C 136.085,190.652 133.252,183.819 136,174.5C 137.688,170.315 140.521,167.315 144.5,165.5 Z"/></g>
<g><path style="opacity:0.928" fill="#000000" d="M 249.5,165.5 C 265.654,163.487 272.487,170.487 270,186.5C 265.652,194.915 258.819,197.748 249.5,195C 241.085,190.652 238.252,183.819 241,174.5C 242.688,170.315 245.521,167.315 249.5,165.5 Z"/></g>
<g><path style="opacity:0.928" fill="#000000" d="M 354.5,165.5 C 370.654,163.487 377.487,170.487 375,186.5C 370.652,194.915 363.819,197.748 354.5,195C 346.085,190.652 343.252,183.819 346,174.5C 347.688,170.315 350.521,167.315 354.5,165.5 Z"/></g>
</svg>
