<?xml version="1.0" encoding="UTF-8"?>
<!DOCTYPE svg PUBLIC "-//W3C//DTD SVG 1.1//EN" "http://www.w3.org/Graphics/SVG/1.1/DTD/svg11.dtd">
<svg xmlns="http://www.w3.org/2000/svg" version="1.1" width="512px" height="512px" style="shape-rendering:geometricPrecision; text-rendering:geometricPrecision; image-rendering:optimizeQuality; fill-rule:evenodd; clip-rule:evenodd" xmlns:xlink="http://www.w3.org/1999/xlink">
<g><path style="opacity:0.962" fill="#000000" d="M 511.5,159.5 C 511.5,171.167 511.5,182.833 511.5,194.5C 508.13,217.774 500.63,239.774 489,260.5C 477.209,279.627 463.876,297.627 449,314.5C 421.739,342.098 393.572,368.598 364.5,394C 331.833,422 299.167,450 266.5,478C 259.167,484 251.833,484 244.5,478C 196.204,436.707 148.204,395.04 100.5,353C 76.7876,331.298 55.2876,307.798 36,282.5C 24.3293,266.163 14.996,248.496 8,229.5C 4.34703,217.892 1.51369,206.225 -0.5,194.5C -0.5,182.833 -0.5,171.167 -0.5,159.5C 4.92168,110.467 28.255,72.6333 69.5,46C 114.274,22.0708 158.608,22.7375 202.5,48C 224.576,63.9087 242.242,83.742 255.5,107.5C 271.415,77.0855 294.748,54.2522 325.5,39C 382.787,18.615 432.621,30.115 475,73.5C 495.688,98.5441 507.855,127.211 511.5,159.5 Z M 132.5,59.5 C 165.201,60.1014 191.701,73.1014 212,98.5C 225.446,116.053 235.779,135.386 243,156.5C 251.333,164.5 259.667,164.5 268,156.5C 275.221,135.386 285.554,116.053 299,98.5C 335.379,57.2252 378.212,49.0586 427.5,74C 462.933,98.692 480.6,132.859 480.5,176.5C 480.409,201.607 473.909,224.94 461,246.5C 441.582,276.606 418.415,303.773 391.5,328C 346.904,368.101 301.571,407.268 255.5,445.5C 214.058,410.895 173.058,375.728 132.5,340C 108.566,318.402 86.399,295.235 66,270.5C 53.7699,254.717 44.1033,237.384 37,218.5C 22.887,172.656 30.5537,130.99 60,93.5C 79.7222,72.554 103.889,61.2207 132.5,59.5 Z"/></g>
</svg>
