<?xml version="1.0" encoding="UTF-8"?>
<!DOCTYPE svg PUBLIC "-//W3C//DTD SVG 1.1//EN" "http://www.w3.org/Graphics/SVG/1.1/DTD/svg11.dtd">
<svg xmlns="http://www.w3.org/2000/svg" version="1.1" width="512px" height="512px" style="shape-rendering:geometricPrecision; text-rendering:geometricPrecision; image-rendering:optimizeQuality; fill-rule:evenodd; clip-rule:evenodd" xmlns:xlink="http://www.w3.org/1999/xlink">
<g><path style="opacity:0.994" fill="#000000" d="M 511.5,158.5 C 511.5,170.833 511.5,183.167 511.5,195.5C 506.599,226.977 494.765,255.644 476,281.5C 454.986,308.52 431.819,333.686 406.5,357C 359.795,398.04 312.795,438.707 265.5,479C 258.833,482.333 252.167,482.333 245.5,479C 198.205,438.707 151.205,398.04 104.5,357C 79.1808,333.686 56.0141,308.52 35,281.5C 16.2347,255.644 4.40142,226.977 -0.5,195.5C -0.5,183.167 -0.5,170.833 -0.5,158.5C 4.07216,119.522 20.7388,86.689 49.5,60C 90.5007,28.0462 135.501,21.0462 184.5,39C 206.198,49.0961 224.365,63.5961 239,82.5C 244.76,90.3634 250.26,98.3634 255.5,106.5C 264.125,92.3634 274.125,79.1967 285.5,67C 325.818,29.4681 372.152,19.8015 424.5,38C 466.391,56.2516 493.558,87.4183 506,131.5C 508.261,140.554 510.095,149.554 511.5,158.5 Z"/></g>
</svg>
